<mxfile host="app.diagrams.net" modified="2022-04-29T06:27:52.629Z" agent="5.0 (Macintosh; Intel Mac OS X 10_15_7) AppleWebKit/537.36 (KHTML, like Gecko) Chrome/100.0.4896.127 Safari/537.36" etag="DlAxMg-l5lrM5HuOT2YR" version="17.4.6" type="github">
  <diagram id="_Payd5vH9mOA6zqDJgqV" name="第 1 页">
    <mxGraphModel dx="815" dy="507" grid="1" gridSize="10" guides="1" tooltips="1" connect="1" arrows="1" fold="1" page="1" pageScale="1" pageWidth="827" pageHeight="1169" math="0" shadow="0">
      <root>
        <mxCell id="0" />
        <mxCell id="1" parent="0" />
        <mxCell id="SaEwlk3qELDqx_eeUyvy-8" value="" style="group" vertex="1" connectable="0" parent="1">
          <mxGeometry x="160" y="210" width="221" height="200" as="geometry" />
        </mxCell>
        <mxCell id="SaEwlk3qELDqx_eeUyvy-1" value="&lt;font style=&quot;font-size: 28px&quot;&gt;10&lt;/font&gt;" style="ellipse;whiteSpace=wrap;html=1;aspect=fixed;sketch=1;" vertex="1" parent="SaEwlk3qELDqx_eeUyvy-8">
          <mxGeometry x="68" width="70" height="70" as="geometry" />
        </mxCell>
        <mxCell id="SaEwlk3qELDqx_eeUyvy-2" value="&lt;font style=&quot;font-size: 28px&quot;&gt;16&lt;/font&gt;" style="ellipse;whiteSpace=wrap;html=1;aspect=fixed;sketch=1;" vertex="1" parent="SaEwlk3qELDqx_eeUyvy-8">
          <mxGeometry y="130" width="70" height="70" as="geometry" />
        </mxCell>
        <mxCell id="SaEwlk3qELDqx_eeUyvy-3" value="&lt;span style=&quot;font-size: 28px&quot;&gt;8&lt;/span&gt;" style="ellipse;whiteSpace=wrap;html=1;aspect=fixed;sketch=1;" vertex="1" parent="SaEwlk3qELDqx_eeUyvy-8">
          <mxGeometry x="151" y="128" width="70" height="70" as="geometry" />
        </mxCell>
        <mxCell id="SaEwlk3qELDqx_eeUyvy-6" value="" style="endArrow=none;html=1;rounded=0;fontSize=28;strokeWidth=2;exitX=0.7;exitY=0.02;exitDx=0;exitDy=0;exitPerimeter=0;entryX=0.5;entryY=1;entryDx=0;entryDy=0;sketch=1;" edge="1" parent="SaEwlk3qELDqx_eeUyvy-8" source="SaEwlk3qELDqx_eeUyvy-2" target="SaEwlk3qELDqx_eeUyvy-1">
          <mxGeometry width="50" height="50" relative="1" as="geometry">
            <mxPoint x="48" y="110" as="sourcePoint" />
            <mxPoint x="98" y="60" as="targetPoint" />
          </mxGeometry>
        </mxCell>
        <mxCell id="SaEwlk3qELDqx_eeUyvy-7" value="" style="endArrow=none;html=1;rounded=0;fontSize=28;strokeWidth=2;exitX=0.3;exitY=0.02;exitDx=0;exitDy=0;exitPerimeter=0;sketch=1;" edge="1" parent="SaEwlk3qELDqx_eeUyvy-8" source="SaEwlk3qELDqx_eeUyvy-3">
          <mxGeometry width="50" height="50" relative="1" as="geometry">
            <mxPoint x="168" y="130" as="sourcePoint" />
            <mxPoint x="103" y="70" as="targetPoint" />
          </mxGeometry>
        </mxCell>
        <mxCell id="SaEwlk3qELDqx_eeUyvy-10" value="" style="group" vertex="1" connectable="0" parent="1">
          <mxGeometry x="430" y="210" width="221" height="200" as="geometry" />
        </mxCell>
        <mxCell id="SaEwlk3qELDqx_eeUyvy-11" value="&lt;font style=&quot;font-size: 28px&quot;&gt;16&lt;/font&gt;" style="ellipse;whiteSpace=wrap;html=1;aspect=fixed;sketch=1;fillColor=#f8cecc;gradientColor=#ea6b66;strokeColor=#b85450;" vertex="1" parent="SaEwlk3qELDqx_eeUyvy-10">
          <mxGeometry x="68" width="70" height="70" as="geometry" />
        </mxCell>
        <mxCell id="SaEwlk3qELDqx_eeUyvy-12" value="&lt;font style=&quot;font-size: 28px&quot;&gt;10&lt;/font&gt;" style="ellipse;whiteSpace=wrap;html=1;aspect=fixed;sketch=1;fillColor=#f8cecc;gradientColor=#ea6b66;strokeColor=#b85450;" vertex="1" parent="SaEwlk3qELDqx_eeUyvy-10">
          <mxGeometry y="130" width="70" height="70" as="geometry" />
        </mxCell>
        <mxCell id="SaEwlk3qELDqx_eeUyvy-13" value="&lt;span style=&quot;font-size: 28px&quot;&gt;8&lt;/span&gt;" style="ellipse;whiteSpace=wrap;html=1;aspect=fixed;sketch=1;" vertex="1" parent="SaEwlk3qELDqx_eeUyvy-10">
          <mxGeometry x="151" y="128" width="70" height="70" as="geometry" />
        </mxCell>
        <mxCell id="SaEwlk3qELDqx_eeUyvy-14" value="" style="endArrow=none;html=1;rounded=0;fontSize=28;strokeWidth=2;exitX=0.7;exitY=0.02;exitDx=0;exitDy=0;exitPerimeter=0;entryX=0.5;entryY=1;entryDx=0;entryDy=0;sketch=1;" edge="1" parent="SaEwlk3qELDqx_eeUyvy-10" source="SaEwlk3qELDqx_eeUyvy-12" target="SaEwlk3qELDqx_eeUyvy-11">
          <mxGeometry width="50" height="50" relative="1" as="geometry">
            <mxPoint x="48" y="110" as="sourcePoint" />
            <mxPoint x="98" y="60" as="targetPoint" />
          </mxGeometry>
        </mxCell>
        <mxCell id="SaEwlk3qELDqx_eeUyvy-15" value="" style="endArrow=none;html=1;rounded=0;fontSize=28;strokeWidth=2;exitX=0.3;exitY=0.02;exitDx=0;exitDy=0;exitPerimeter=0;sketch=1;" edge="1" parent="SaEwlk3qELDqx_eeUyvy-10" source="SaEwlk3qELDqx_eeUyvy-13">
          <mxGeometry width="50" height="50" relative="1" as="geometry">
            <mxPoint x="168" y="130" as="sourcePoint" />
            <mxPoint x="103" y="70" as="targetPoint" />
          </mxGeometry>
        </mxCell>
      </root>
    </mxGraphModel>
  </diagram>
</mxfile>
